<?xml version="1.0" encoding="UTF-8"?>
<svg version="1.1" viewBox="0 0 2048 1146" width="920" height="515" xmlns="http://www.w3.org/2000/svg">
<path transform="translate(1053,190)" d="m0 0 30 1 23 2 8 4 12 8 13 11 10 9 5 4 7 9 9 10 4 7h1v-10l-10-41 9 1 17 5 10 4 11 4 15 6 18 8 17 9 14 9 14 10 13 11 3 2 4 26 5 21 10 29 9 16v4l-5-2-15-16-13-10-9-8-11-9-19-14-19-12-13-8-23-11-3 21-5 18-4 7-5-1-21-13-22-13-23-14-24-14-5-3-16 2-31 7-30 10-18 8-17 9-17 11-11 9h-2l4 8 11 9 3 5v3l-10 3-16 7-14 9-8 7h-2l-2 4-8 7-7 6-2 4 27 4 11 4 3 19 8 20 9 12 10 10 14 9 11 5 11 4 11 2 16 1 99 1 1 1 14 1 24 6-7-8-14-15-11-12-7-6-22-22-11-7-7-2h-24l-4 1h-30l-6-2-17-5-14-6-15-8-9-5 1-4 12-10 8-6 9-6 20-9 15-4 11-1 12 2 25 10 16 8 10 6 8 6 6-3 9-7 12-5 9-3 10-1-2 4-8 11-6 12-2 7 1 8 4 6 29 29 7 8 9 10 14 16 3 5 5-2 12-6 15-4 14-2h20l3 1 15 1 19 4 17 6-4-5-8-6-4-5-8-7-10-9-8-8-10-8-13-13-10-19-7-10-7-9-5-7 1-2 9 3 23 13 9 6 4-2 7-6 8-5 7-3h6l5 5 8 9 7 14 1 8-12 11 1 5 7 7 7 8 11 12 5 8 3 1-1-3v-9l3-18 5 5 8 11 10 15 14 24 10 18 13 28 11 27 14 43 7 29 4 22 4 34 1 13v35l-3 39-1 1-1 15-1 1-1 12-2 10-5 21-5 20-7 20-3 3-6-5-11-14-14-15-5-7-2-1-3 28-7 34-6 21-8 23-10 24-12 24-10 17-10 15-10 14-13 16-8 8-9 11-11 10-8 7-10 9-13 10-8 6-10 7-5 3h-3l-3-16-9-34-2-12-11 6-15 10-24 13-28 13-34 12-29 8-21 4-16 3-17 3h-42l-27-5-33-5-29-8-26-10-14-8-6-4 1-8 1-9 2-3 3-24 1-2 2-16 1-15 3-25 1-19v-43l-3-39-4-27-5-23-4-16-4 5-9 16-15 22-28 36-9 10-7 8-18 20-11 10-8 7-15 13-9 6h-4l-11-22-8-20-8-27-6-28-4-25-2-22-1-32v-44l1-6 1-22 2-21 2-2 1-4 2-22-36 12-41 14h-3v-12l1-4 1-15 3-12 5-24 9-32 11-30 13-29 14-27 6-9 7-12 13-19 7-8 5-6 1-3-17-2-31-5v-6l10-21 12-21 8-12 9-13 12-16 22-26 24-24 8-9 8-7 13-12 10-8 10-7h2l-2 5-5 17-2 12-1 2v29l4 17 8 19 9 12 11 12 7 6 4 2-7-16-6-20-2-12-1-25 1-14 4-12 6-12 14-15 11-7 10-3h20l17 4 3 3 8 3 15 9-2-6-10-15-5-6-16-14-15-8-14-4v-4l19-9 28-11 35-12 36-9 21-4 21-3 21-2zm154 335-16 5-9 3-27 13-15 8-8 5-21 14-14 10-10 8-5 6 11 23 14 27 11 23 12 23 1 1h19l21-5 16-8 19-11 12-8 16-11 16-12 14-11 6-6v-64l-12-5-19-10-9-6-10-7-8-5zm143 3-11 11-18 12-12 6-1 27v39l17 17 13 17 10 16 5 12 3-1 8-25 4-25v-42l-1-3-1-11-3-13-6-21-5-15zm-90 159-8 7-10 9-12 9-24 15-19 9-25 8 1 6 15 28 13 26 9-2 24-10 13-7 16-11 10-8h2l3 14 1 9 1 2 1 14 1 5 1 25 4-2 10-8 9-9 11-15 10-16 6-16 4-10 4-15v-16l-4-12-9-16-7-9-4-4z" fill="#1E2223"/>
<path transform="translate(983,9)" d="m0 0 3 1 12 22 10 15 6 11 25 40 4 7 3 4 3 6 5-4 6-8 5-6 5-4 9-11 12-13 13-14 7-8 12-13 9-11 12-12h2l1 16 2 27 1 21 2 21 1 26 5-5 9-12 8-10 14-15 14-14 11-9 11-8 2 1-9 19-10 27-9 37-2 11-2 18-1 15-1 3h-10l-24-6-24-4-2-1-21-2-35-3h-33l-17 1-23 2-3 1-15 1-7 2-24 4-36 9-36 12-11 5-16 7-19 10-13 8-7 2-9-26-13-30-10-20-13-23-7-11-5-7-2-7 5 1 16 8 14 9 12 8 15 11 11 9 9 7-1-11-6-45-1-2-1-12-3-16-2-15-3-10 5 2 16 10 13 10 15 10 16 11 17 12 16 11 18 13 4 3 4-16 12-36 6-17 3-8 2-7 2-3 3-12 7-19z" fill="#202425"/>
<path transform="translate(952,1137)" d="m0 0 18 1h39l19-1v1l-17 3h-42l-17-3z" fill="#FEFEFE"/>
<path transform="translate(781,282)" d="m0 0" fill="#FEFEFE"/>
</svg>
