<?xml version="1.0" encoding="UTF-8"?>
<svg version="1.1" viewBox="0 0 1912 880" width="120" height="70" xmlns="http://www.w3.org/2000/svg">
<path transform="translate(401,4)" d="m0 0 3 1 5 6 11 7 18 18 6 5 7 8 7 7 2 1v2l4 2v2h2l3 6-1 5-7 7-2 10-2 2v10l7-6 10-9 6-3 6-6h2l2-4 4-3 6-1 4 4 2 5 10 9v2h2l6 8 4 8 19-9 9-3 15-7 9-3 11-5 14-5 7-3h8l-1 7-9 17-5 11-3 9-8 16-5 11-3 9-13 26-1 9 8 2v2l13 1 7 3 9 3 40 20 8 5 8 7 8 5 7 6 7 8 5 6 3 5 8 9 20 40 2 9 6 12 7 21 3 11 3 7v6l-5 1h-39l8 15 4 7 4 5 1 7 7 14 1 11 2 1 1 4v19l3 1 1 4v14l-3 3-1 26-3 2-1 13-3 3-2 10-4 8-3 9-9 19-10 19-10 21-10 19-4 8-4 2-7-8-6-10-2-5-6-8-5-8-3-1v22l-2 6-3 12h-2l-1 10-3 4-2 9-10 19-10 21-5 9-3 4h-2l-2 7-4 5h-2l-2 7-4 5h-2l-2 7-7 7-5 6-2 1-2 6-48 48-8 4-6 5-7 4-5 4-5-1v-8l3-6v-29l-7 6-15 15-2 6-22 22-2 6-29 29-3 4-4-2-9-10-25-25-3-6-15-16-7-8-3-5-5-5-6-7-3-2v-2h-2v35l3 4-1 5h-5l-7-7-5-4-6-3-9-9-5-4-5-2-61-61-2-5-3-3v-2l-4-2-7-9-3-5-5-6-2-5-6-8-8-16-9-19-3-5-3-10-2-9-3-9-1-28-4 2-10 19-8 16-2 6-3-1-4-6-6-12-6-8-6-9-10-19-8-17-3-8-5-12-8-24-2-11-2-3-1-16-2-6-1-2v-36l3-4 1-19 3-7 3-9 5-11 2-7 6-8 4-8 1-5h-44l1-7 3-9 10-29 4-8 3-10 8-16 10-19 3-6 5-7 3-5 9-10 2-5 4-5 5-4 6-3 9-8 16-9 13-8 8-4 9-2 11-6 13-2 2-2 12-1 5-3 6-1-2-10-12-25-3-8-8-18-7-14-4-11-10-21-2-3v-5h9l14 7 8 2 10 5 1 1 9 2 12 6 8 2 21 11 2-5 3-6 5-6h2l2-4 4-4h2l2-4 3-7h9l5 4 5 5v2l6 1 12 12 2 1v2l4 2 4 3-1-10-3-6-3-9-4-8-1-1v-5l9-8 5-6 8-7 8-8 5-2 4-4 3-6 5-2 6-5 1-2h2l2-4 4-4h2zm0 36-42 42 1 4 6 11 2 14h2l1 7v16l-3 3-1 9-5 5h-14l-6-3-5-5-1-26-6-5-6-3-7-6-4 1-5 5-2 6-7 8 1 4 2 1 1 3v18l-7 8-3 2h-10l-6-4-4-5-4-8v-8l3-4v-5l-1-1-10-2-16-8-3-2-8-1-2 1v6l7 14 2 7 10 20 1 7 10 19 2 10 6 5 3-3h59v2l11 3 11 6 9 2 26 13 1 1 9 1 1 2h4l1-2 8-1 16-8 13-7 9-2 2-2 7-3 11-3 2-2h58l2 3 4-2 3-4 2-9 6-11 4-10 3-9 8-16 5-11 4-11v-5h-6l-20 8-7 3-8 2 1 5 3 5v7l-3 4-2 5-3 3v2l-4 2-1 1h-11l-6-4-4-5v-20l3-4-1-6-7-11-7-6-5 2-9 9-7 3-1 1 1 9 3 3v2l-3 1-1 9-8 8-2 1h-14l-5-3-2-10-3-4v-19l3-5 1-12 6-11 1-5-5-6-8-7-4-5-8-7-7-7-7-8zm-95 179-2 1v27l3 1 1 15h2l2 12-19 1-10 6-7 7-2 6-12 24-2 3v5l3 4 4 8v7l-5 5-10 2-9 5-7 7-1 3 1 3h2l3 9 3 3 8 2 2 4 4 3 18 1 1 3h9l6 1v2l7 3 7 6 8 4 9 2-1 5-5 4-6 3-6 5-7 4-6 6-3 7-1 2v33l3 1 1 10 5 9 5 6 6 4 6 3h19l48-24 8-6 3-4 2-5 6-11 1-5 2-1 1 7 2 2 3 11h2l2 4 9 8 23 11 17 9 8 4h19l5-3 5-2 5-5 11-23 1-3v-26l-8-16-5-6-6-2-7-6-7-3-3-4 1-4 9-1 4-3 5-2 7-6 5-2 2-2 13-1 3-3 17-1 4-3 5-2 5-4 4-5 3-7 1-5-7-8-11-6-8-1-3-3-6-2v-2l3-1 4-10v-19l-9-17-6-7-2-6-6-2-6-6-18-1v-12l3-5 2-9 2-5v-24l-4-1-10 1-3 2-9 2-11 6-4 4-8 4-4 4-6 3-6 5-8 4-8 8-8 4-6 5h-7l-4-4h-2l-1-3-6-2-8-7-3-3-5-2-7-6-6-3-6-5-7-3-8-5-3-1-1-3-10-2-3-2zm327 20v4l6 8 10 21 6 12 2 7 2 5 1 10 3 5 1 7 3 4v5l-7 4-13 7-11 3-8 3v3l2 1 4 9 5 11 2 7 2 5 1 7 2 1 1 3 1 16 3 1 1 23 3 1v46l-3 3-1 13-5 1-3-6-6-8-3-6-5-6-4-7-4-5-4-7-4-5-3-5-5-5h-1l-1 72-3 2-1 38-3 2-1 31-3 1-1 23-3 1-1 15-3 1-1 15h-2l-3 11-5 9-2 4-2-1-1-34-3-2-1-42-5-2-3 2-2 10-2 3-2 9-6 11-2 5-8 16-6 7-2 5-3 3v2h-2l-3 7-3 3v2h-2l-3 7-3 3v2h-2l-3 7-7 7v2l-4 2v2h-2l-3 7-8 8h-5l-1-14-3-4-1-12-4-1-1 11-3 3-2 9-2 3-1 9-3 2-1 10-3 2v10l-3 1-2 8h-2l-2 10-3 4-2 5-5 10-1 1-2 9-6 12-3 9-6 13 1 3 4-1 7-8 9-9 2-5 11-11 5-6 10-10 2-5 11-11 7-8 8-8 2-5 7-7 7-8 8-7 1-2 3-1-3 8-1 1-1 17-3 3-1 16-3 4v19l4-2 12-11 16-16 4-5 2-5 10-11 3-6 5-6 3-6 5-6 3-6 5-7 15-30 5-11 7-21 3-10 6-18 2-10 2-4 1-10 3-5 1-15 3-5 1-19 3-5 1-5h2l4 7 6 11 6 8 4 7 4 5 7 14 5 6 2 5 3-1 3-8 9-18 2-8 2-4 2-8 2-3 1-12 3-4 1-24 3-4v-36l-3-4-1-14-3-7-2-13-3-8-5-11-8-16-5-9-5-7-3-5-5-6v-5l23-1 4-1 1-2 18-1 1-5-3-6-3-10-5-11-3-9-7-14-6-8-6-12-8-9-8-7-4-5h-2l-2-4-10-9zm-476 4-7 4-21 21-4 8-5 6-10 21-8 16-2 3-2 9-2 3-1 8-3 3v3l22 1 3 3h27l-8 10-3 6-5 6-10 21-8 16-2 3-2 9-2 3-2 13-2 2-1 18-2 5-1 1v18l2 1 1 4 1 27 2 2 2 13 3 6 4 14 2 6 2 5 2 7h3v-17l-2-7-1-3v-90l3-5 1-11 3-6 2-9 3-9 8-17 10-18 8-12 5-7 3-5 5-7-4-2-1-3-15-1v-2l-2-1-25-1v-15l5-15 8-16 9-17 6-9 7-10 3-6v-4zm65 1-10 5-5 6 1 4 2 1 14 1 6 3v3l-6 6-2 6-3 3v2h-2l-8 16-4 13-1 1v9h3l5-6 3-5 5-5 9-10 7-7 2-5 4-5 6-5 7-8 1-1v-8l-7-8-11-6zm344 0-11 6-7 7-1 7 7 9 12 12 3 6 4 5h2l1 3 14 14 3 6 5 5h2l-1-11-2-4-2-8-8-16-6-11-8-8-1-2 4-2 1-1 16-1 3-1v-5l-5-6-9-4zm-166 263-11 1-2 2-11 3-12 6-7 1v4l6 4 7 1 2 6-10 1-16 8-11 6-11 11v21l5 9 6 8 2 5 5 4 5-1 4-8 2-7 6 2 11 11 4 3 5 2 7 7h2v2l7 3 5 5 2 1 8-7 6-3 8-7 5-5 8-5 10-9h4l1 7 3 4 2 5 4 1 7-7 3-6 5-6 1-8 3-5v-11l-6-11-3-3-7-3-6-5-8-4-7-3-1-1-10-1 1-6 9-1 6-5-1-3-12-3-6-2-10-4-8-4zm-164 96v8l3 9 1 15 2 2 1 9 2 10 2 4 1 7 3 4 1 11 3 5 1 7 3 5 1 7 3 4 4 11 2 6 2 4-7-6-11-11-2-5-5-5-9-11-4-6-12-13-2-5-9-9-6-9-5-7-5-4h-2l1 7 3 11 8 16 5 9 5 6 3 6 6 8 3 5 9 11 3 5 3 4h2l2 4 9 9 3 6 11 12 14 14h2v2l7 6 4 4h1v-44l-3-1-1-20 8 7 3 1 2 4 9 9 3 6 7 8 6 5 7 8 6 7 4 7 9 9 8 7 4 2-1-7-6-8-4-7-4-5-4-7-4-5-3-5-5-7-3-5-8-9-3-6-10-11-2-5-4-5h-2l-2-4-5-8-9-10-4-4-2-5-5-6h-2l-5-10-6-8-9-19-7-9-7-14-5-8z" fill="#300635"/>
<path transform="translate(785,368)" d="m0 0h146l1 1v38l-2 1h-98v48h87l1 1v38l-1 1h-9l-3-3-55-1-1 3-7-1h-4l-5-1v2l-2 1-1 67-11 1h-36l-1-1v-194z" fill="#2E0333"/>
<path transform="translate(1732,412)" d="m0 0h38l6 5 4 6 4 9 2 7 6 13 2 7 5 10 2 9 11 22 2 7 2 5h3l2-11 5-10 3-10 5-10 4-12 8-16 4-12 8-16 3-3h39l-1 7-2 3-3 10-9 19-3 9-4 9-3 10-6 11-2 5-2 3-2 9-6 11-2 5-2 3-2 9-6 11-2 5-2 3-2 9-6 11-2 5-4 8-5 9-7 8-10 8-14 7-4 1h-34l-3-3-9-2-10-5-3-3 14-28h2l1-3 7 1 10 6h15l6-4 7-8 1-2v-10l-7-15-5-14-7-14-5-14-7-14-5-14-7-14-5-14-7-14-4-12z" fill="#300635"/>
<path transform="translate(1129,412)" d="m0 0h34l4 4 1 4v8l9-5 10-7 8-2 2-2h37l5 3 7 1 6 5v2l5 1 7 5 6 10 6 13 1 11 3 2v98l-11 1h-32l-1-1-1-82-3-3-1-12-9-10-4-3h-29l-16 16-1 94-11 1h-36l-1-1v-146z" fill="#2F0434"/>
<path transform="translate(1473,412)" d="m0 0h46l2 3 13 1 9 5 7 7 2 1v2l3 1 5 7 8 17 1 15 3 3v89l-2 1h-41l-1-1v-11l-12 6-7 6-12 1-1 2-10 1h-12l-3-2v-2h-13l-4-3-5-2-17-17-4-8v-27l5-10 9-10 10-6 11-3 2-2 59-1-1-13-6-7-11-6h-32l-16 8-5 3-5-1-4-6-9-19-2-3v-3l8-3 17-9 13-2zm3 92-4 5v17l4 5 10 5h18l11-5 7-6 2-3v-18z" fill="#300535"/>
<path transform="translate(990,412)" d="m0 0h48l5 3 8 2 16 8 5 4 6 10 5 10 1 10 3 1 1 2v101l-5 1h-38l-1-1v-11l-5 3-6 5-6 3-14 2-3 3h-20l-4-3-12-1-6-5v-2l-7-2-5-4-6-10-6-12v-14l3-7 2-7 6-7 3-6 16-8 9-2 2-2 58-1-1-6-5-10-7-6-8-4h-28l-3 2-11 3-12 6h-3l-7-15-6-12 1-5 5-4 13-5 7-3 9-2zm7 92-9 9v9l5 9 9 5h18l12-6 9-8 3-4v-14z" fill="#300635"/>
<path transform="translate(1641,412)" d="m0 0h50l2 3 13 1 2 1v2l10 1 6 5v5l-3 4-8 16-2 6-6-1-3-2-9-2-3-2-46-1-2 4-2 5 2 7 4 3 8 1 4 3 16 1 2 1v2l18 1 2 1v2l10 1 21 21 1 2v31l-3 4-2 5-9 9-7 3-5 5-9 1-2 2-18 2-1 2-18 1-10-1-2-2-16-1-7-2-6-2-13-5-2-2-5-2 3-9 10-19h2l1-3 6 1 11 6 12 1 5 3h34l5-3 5-6v-5l-4-4-8-3-1-1-22-2-2-2-17-2-3-2-9-2-8-4-6-5v-2l-3-1-4-5-1-8-3-4v-15l3-7 2-7 6-7 2-5 6-3 7-6 8-4 9-2z" fill="#310736"/>
<path transform="translate(1325,380)" d="m0 0h37l5 4 1 4v28h35l1 1v34l-5 1h-31l1 71 3 3 10 5h7l5-3h8l9 17 1 4v10l-8 3-1 1-14 2-1 2-8 1h-14l-3-2v-2h-9l-4-3-16-8-10-20-1-13h-2l-1-2-1-66h-19v-36l19-1 1-29z" fill="#2F0534"/>
<path transform="translate(309,308)" d="m0 0h9l4 3 10 2v2l8 2 1 2h22l2-3 3 1 1 6 3 3-3 4-1 8-11 11-2 6-4 8-2 3-2 9-2 3v13l18 1 2 3h79l1-3 15-1-1-12-3-6-3-10-6-10-3-3-1-6h-5l-2-2-3-7-1-1v-17l5-1 5 3h20l4-3 5-2 2-2 11-1 1-3h9l4 3 8 4 9 2 9 5 1 2-2 3-23 11-12 6h-12l4 6v5l-2 1h-8l-7-4 5 12 2 7 8 16 2 3v8l-3 3-1 6-7 2-2 2-8 1-9 1-10 5-15 15-2 6-7 3-6 6-5 1-3 3-5-1-8-4-12-12-3-6-10-11-10-5-17-1-2-3-6-2-4-8-1-1v-8l3-4 3-7 1-1 1-8 3-4v-9l-9-1-2-2 1-6 2-3-13-1-4-3-8-1-6-5v-2l-7-2-8-4-2-4 3-3 5-2 11-6 10-1z" fill="#340B39"/>
<path transform="translate(1374,616)" d="m0 0h16l5 3 4-1 2-2h10l1 1v56l-8 10-2 1-9 1-2 2h-11l-1-2-15-2-3-3 1-5 3-7 6 1 5 2h20l-1-6-20-1-7-1-7-8-3-11-1-4h2l1-9 4-6 8-8zm10 13-7 3-3 7-2 3 8 9 2 1h8l6-6v-12l-4-3-5-2z" fill="#340B39"/>
<path transform="translate(401,56)" d="m0 0h3v131h-3l-5-5-1-29-3-3-1-14-3-8-1-13-4-11-5-11-5-6 1-4h2l2-4h2l2-4h2l2-4 4-4h2v-2l5-4z" fill="#340B39"/>
<path transform="translate(1318,616)" d="m0 0h16l10 5 6 10 2 7v29l-2 1h-13l-2-3h-2l-3 3h-14l-5-2-6-3-1-1v-16l4-5 11-5 12-1-2-4-3-2-5 1-5 2h-6l-5-4-1-3 6-5zm3 32-2 1 1 6 2 1h8l5-5v-3z" fill="#370E3B"/>
<path transform="translate(1502,616)" d="m0 0h15l5 3 9 10 5 11v7l-1 1h-36l5 5v2h13l3-1 2-3 6 2 3 3-1 4-5 6-8 2h-16l-7-3-9-10-3-11-1-4h2l1-9 6-8 10-6zm3 12-5 5 1 3h18v-3l-9-5z" fill="#350C3A"/>
<path transform="translate(1266,616)" d="m0 0h16l9 5 5 5 3 7 1 5v9l-1 1-35 1 4 5 2 1h11l3-1 3-3 5 2 4 6v4l-9 4-8 1h-9l-8-2-9-6-5-7v-17l4-10 8-7zm4 12-6 5v3h19l1-2-6-6z" fill="#350C39"/>
<path transform="translate(1425,616)" d="m0 0h14l1 1 1 34 5 4 5-1 7-6 1-2 1-30h9l5 3 2 7v41l-2 1h-13l-2-3h-2l-3 3h-13l-6-2-6-3-2-3v-4h-2l-1-3v-36z" fill="#350C3A"/>
<path transform="translate(1196,604)" d="m0 0h19l1 1v51h28l3 4-1 5-4 3h-37l-6-2-3-4z" fill="#330938"/>
<path transform="translate(301,176)" d="m0 0h69l4 3 7 3 7 14 1 7 3 5-1 4-16-8-13-7-9-2-6-3-7-1-1-2-56-1-3-1 2-4 4-3 14-1z" fill="#38103D"/>
<path transform="translate(785,368)" d="m0 0h146l1 3h-145v193l-3-1v-194z" fill="#A095A0"/>
<path transform="translate(1325,380)" d="m0 0h37l5 4 1 4v28h35l1 1v34l-5 1h-31v65l-2 4-1-1-1-27v-33l1-9 2-1h34v-30l-34-1-3-2v-34l-39 1-1 8-1 26-1 1h-22v-3l19-1 1-29z" fill="#A295A3"/>
<path transform="translate(931,387)" d="m0 0h1v20l-2 1h-98v48h87v3l-88-1-2-2v-45l1-6 2-1h98z" fill="#9F949F"/>
<path transform="translate(1129,412)" d="m0 0h34l2 3-37 1-1 147h34v1h-36l-1-1v-146z" fill="#ADA4AD"/>
<path transform="translate(401,56)" d="m0 0h3v131h-3l-5-5 3-23 1-16 2-80 1-2-6 3-19 19h-2l2-4h2l2-4h2l2-4 4-4h2v-2l5-4z" fill="#A095A0"/>
<path transform="translate(785,368)" d="m0 0h146l1 3h-145l-2-1z" fill="#A196A1"/>
<path transform="translate(1568,471)" d="m0 0 3 1 1 2v89l-2 1h-41l-1-4h2v3h39l-1-5z" fill="#BCB4BC"/>
<path transform="translate(1403,418)" d="m0 0h1v33l-5 1h-31v65l-2 4-1-1-1-27v-33l1-9 2-1h34v-30z" fill="#A398A3"/>
<path transform="translate(1169,474)" d="m0 0h2l1 5v84l-4-1v-81z" fill="#BCB4BC"/>
<path transform="translate(830,409)" d="m0 0h2v47h87v3l-88-1-2-2v-45z" fill="#9D919D"/>
<path transform="translate(1276,463)" d="m0 0 4 2v98h-3z" fill="#968896"/>
<path transform="translate(1861,412)" d="m0 0h39v5l-4-1h-34l-3 3-7 15-6 15-9 21-11 27-2 1 1-5 4-12 5-10 4-12 8-16 4-12 8-16z" fill="#B1A8B1"/>
<path transform="translate(401,37)" d="m0 0 4 2 38 38 2 4h-3l-15-15v-2l-4-2v-2l-4-2-8-8-7-8h-4l-39 39v-3l18-18 7-8z" fill="#9D919D"/>
<path transform="translate(1085,459)" d="m0 0 3 3v101h-3v-63l-1-40z" fill="#745D76"/>
<path transform="translate(1300,450)" d="m0 0h23l1 70h-3l-1-2-1-66h-19z" fill="#A59AA5"/>
<path transform="translate(1460,616)" d="m0 0h9l5 3 2 7v41l-2 1h-13l-1-5 3 1 1 2 8 1-1-47-10-1z" fill="#A297A2"/>
<path transform="translate(602,428)" d="m0 0 5 5 4 5v2l-3-1-3-3-1 71h-4l1-38 1-26z" fill="#7E6A7F"/>
<path transform="translate(364,835)" d="m0 0 7 6 16 16 7 8 7 6 4-1 7-8 16-16 6-7h2l-1 4-29 29-3 4-4-2-9-10-25-25z" fill="#867488"/>
<path transform="translate(831,492)" d="m0 0h4v3l-2 1-1 67h-3v-62l1-8z" fill="#978A98"/>
<path transform="translate(1212,604)" d="m0 0 4 1v51l-4-1z" fill="#A095A0"/>
<path transform="translate(357,791)" d="m0 0 7 6 4 3 1-4 4 4 7 11 10 15 2 5-7-6-11-12-6-7v-2h-2l-7-8-2-2z" fill="#DAD6DA"/>
<path transform="translate(286,180)" d="m0 0 6 2 44 5v1h-53l-3-1 2-4z" fill="#A095A0"/>
<path transform="translate(1196,604)" d="m0 0h4v60h-3l-1-2z" fill="#C7C1C7"/>
<path transform="translate(1485,501)" d="m0 0h42v18l-2 2-1-5v-12h-46v-1z" fill="#988B99"/>
<path transform="translate(415,16)" d="m0 0 5 2 18 18 6 5 7 8 7 7 2 1v2l4 2v2h2l2 3-1 3-47-47-5-4z" fill="#DAD6DA"/>
<path transform="translate(1532,633)" d="m0 0 3 4 1 3v7l-1 1h-36l5 5v3l-4-1-4-7 2-3h33l1-5z" fill="#988B98"/>
<path transform="translate(1322,385)" d="m0 0h1v33l-1 1h-22v-3l19-1 1-29z" fill="#BEB3BF"/>
<path transform="translate(1e3 501)" d="m0 0h41v3l-47 1-8 8-1-2 6-7z" fill="#9F939F"/>
<path transform="translate(652,431)" d="m0 0 3 1 1 2v44l-4 2z" fill="#928393"/>
<path transform="translate(1425,616)" d="m0 0h14l1 1v28l-2 3-1-1v-27l-11-1v13h-1l-1-15z" fill="#A095A0"/>
<path transform="translate(1266,616)" d="m0 0h16l9 5 5 5 3 7 1 6h-3l-1-1-2-9-5-6-6-3-5-1h-9l-9 3-5 5-4 2 3-5 6-5z" fill="#B7AEB7"/>
<path transform="translate(70,323)" d="m0 0 2 1-6 14-3 10-4 12-4 14 33 1v1h-36l1-7 3-9 10-29z" fill="#ACA3AC"/>
<path transform="translate(1200,449)" d="m0 0h11l10 3 8 7 4 5 2 5 1 10h-3l-1-1-1-12-9-10-4-3-28-1 3-2z" fill="#A095A0"/>
<path transform="translate(1325,380)" d="m0 0h37l3 3-40 1-1 8h-1l-1-6v-3z" fill="#857186"/>
<path transform="translate(1348,631)" d="m0 0h2l2 7v29l-4 1z" fill="#A79CA7"/>
<path transform="translate(1732,412)" d="m0 0h38l3 3-40 1z" fill="#A297A2"/>
<path transform="translate(71,450)" d="m0 0h1l-1 29 1 12-2 2-2-3v-36z" fill="#908091"/>
<path transform="translate(990,412)" d="m0 0h48l3 2v2l-22-2h-12l-17 2h-7l4-2z" fill="#A69AA7"/>
<path transform="translate(317,781)" d="m0 0 7 6 3 3-1 2-3-2v-2h-2l-1 29h-1l-2-11-1-24z" fill="#A095A0"/>
<path transform="translate(528,758)" d="m0 0 2 1-7 8-9 9-8 7-5 2v-8l2-11h1v14l11-9z" fill="#A095A0"/>
<path transform="translate(1369,416)" d="m0 0h34v3h-36v-2z" fill="#A399A3"/>
<path transform="translate(366,36)" d="m0 0 3 1-27 27h-2l-2 5-2 1v-5l9-8 5-6 8-7z" fill="#C1BAC1"/>
<path transform="translate(1659,444)" d="m0 0 18 1 7 1v2h-38l4-2z" fill="#A095A0"/>
<path transform="translate(602,469)" d="m0 0h1l1 22v16h-4l1-37z" fill="#A298A2"/>
<path transform="translate(1502,616)" d="m0 0h15l5 3-2 2-8-2-12 1-7 4-4 2-2 6-3 2 1-5 6-7z" fill="#9C8F9C"/>
<path transform="translate(119,552)" d="m0 0h1l1 8h1l3 18 1 9-3-3-6-13v-3h3l-1-6z" fill="#A59AA5"/>
<path transform="translate(148,373)" d="m0 0 1 3-8 15-8 17-4 8-2 1 2-8 16-32z" fill="#8B7A8C"/>
<path transform="translate(398,40)" d="m0 0h2l-2 4-37 37v-3l18-18 7-8z" fill="#A197A1"/>
<path transform="translate(1212,604)" d="m0 0h3v51l-2-2z" fill="#FCFBFC"/>
<path transform="translate(93,570)" d="m0 0 3 4 10 21 8 14-1 3-5-7-8-16-8-17z" fill="#988A99"/>
<path transform="translate(1641,412)" d="m0 0h18l-3 2-20 3-16 8-4 1 5-5 9-5 9-2z" fill="#A99EA9"/>
<path transform="translate(1403,418)" d="m0 0h1v33l-3-1v-30z" fill="#918191"/>
<path transform="translate(364,835)" d="m0 0 7 6 16 16 7 8 4 4-1 2-32-32z" fill="#7A647B"/>
<path transform="translate(1045,547)" d="m0 0h2v16h36v1h-38l-1-1-1-12v-3z" fill="#B7AFB7"/>
<path transform="translate(1454,480)" d="m0 0h5l-1 2-12 6-9 8-7 13-2-2 5-10 9-10 10-6z" fill="#BCB4BC"/>
<path transform="translate(610,607)" d="m0 0h2l-1 5-10 30-4 10h-1l1-7 6-16 2-8 4-12z" fill="#9F939F"/>
<path transform="translate(172,231)" d="m0 0v3l-11 14-4 4-1-2 3-4v-2l-2-1 1-3 5-3z" fill="#C9C3C9"/>
<path transform="translate(1402,448)" d="m0 0 1 3-4 1h-31v5l-2 1-1-7 2-1h35z" fill="#ADA3AD"/>
<path transform="translate(485,781)" d="m0 0h2v15l-1 9h-1l-1-17-4 2-9 9-2-1 15-16z" fill="#AFA6AF"/>
<path transform="translate(1300,450)" d="m0 0h23v14l-1 6h-1l-2-18h-19z" fill="#978898"/>
<path transform="translate(572,108)" d="m0 0h4l-1 6-4 10-3 3 1-6 3-9-16 4 4-4z" fill="#A398A3"/>
<path transform="translate(1316,648)" d="m0 0h2v4h2v3h10l5-2-1 4-5 2h-10l-3-3-1-7z" fill="#B9B1B9"/>
<path transform="translate(1329,628)" d="m0 0 5 3 1 2v6h-19v-2l3-1 12-1-2-4z" fill="#8A788C"/>
<path transform="translate(401,56)" d="m0 0h3l-1 4-8 6-17 17h-2l2-4h2l2-4h2l2-4 4-4h2v-2l5-4z" fill="#A99FA9"/>
<path transform="translate(1197,412)" d="m0 0h37l2 1v2l-15-1h-15l-9 2-4-1z" fill="#ABA0AB"/>
<path transform="translate(220,739)" d="m0 0 7 6 11 11 7 8 4 5-4-2-25-25z" fill="#8B7A8C"/>
<path transform="translate(1533,416)" d="m0 0 10 5 7 7 2 1v2l3 1 5 7-1 2-12-13-9-6-9-4z" fill="#8E7E8F"/>
<path transform="translate(324,350)" d="m0 0 4 1v2l3-1h8v7l-1 2h-2l-1-4-9-1-2-2z" fill="#8E7D8F"/>
<path transform="translate(646,246)" d="m0 0 4 2 17 17 1 4-8-6-8-8-6-7z" fill="#9C919D"/>
<path transform="translate(728,459)" d="m0 0 3 1 1 4v14l-3 2-1-1z" fill="#ABA1AB"/>
<path transform="translate(705,343)" d="m0 0 3 4v2l-8 2h-16l1-3h20z" fill="#9C8F9D"/>
<path transform="translate(91,347)" d="m0 0 23 1 2 3h-20l-6-1z" fill="#A196A1"/>
<path transform="translate(1645,564)" d="m0 0 27 1v2l-18 1-10-1-1-2z" fill="#A196A1"/>
<path transform="translate(572,698)" d="m0 0 1 2-10 16-9 13h-2l2-5 5-6 3-6 5-6 3-6z" fill="#A69CA6"/>
<path transform="translate(368,111)" d="m0 0h2l2 7v16l-3 2z" fill="#A095A0"/>
<path transform="translate(1364,564)" d="m0 0h23l1 3-8 1h-14l-3-3z" fill="#ABA1AB"/>
<path transform="translate(989,564)" d="m0 0 23 1v2l-7 1h-15l-3-3z" fill="#ABA1AB"/>
<path transform="translate(1022,448)" d="m0 0h5l9 6 6 7 2 4-1 4-3-4-4-7-8-6-6-3z" fill="#B5ACB5"/>
<path transform="translate(427,780)" d="m0 0h1l-1 7-6 12-3 9-4 8-1-3 10-24z" fill="#9F939F"/>
<path transform="translate(1374,616)" d="m0 0h16l2 1v2h-11l-9 2-4 2 2-4z" fill="#A79AA7"/>
<path transform="translate(1473,564)" d="m0 0h22l1 3-10 1h-12l-3-3z" fill="#A79CA7"/>
<path transform="translate(435,110)" d="m0 0h1l-1 22v5l-3-3v-19z" fill="#978898"/>
<path transform="translate(1753,616)" d="m0 0 8 2h23l5-2h3l-1 3-4 1h-34l-2-3z" fill="#A59BA5"/>
<path transform="translate(1836,464)" d="m0 0 2 1-3 10-9 22-2 1 1-5 4-12 5-10z" fill="#A195A1"/>
<path transform="translate(448,48)" d="m0 0 4 2 8 7v2l4 2v2h2l2 3-1 3-19-19z" fill="#BCB5BC"/>
<path transform="translate(1498,632)" d="m0 0 3 3v2h20v2h-24l-1-4z" fill="#A095A0"/>
<path transform="translate(97,483)" d="m0 0 2 1 1 4v20l-2-4-2-13v-7z" fill="#A095A0"/>
<path transform="translate(673,380)" d="m0 0 4 4 9 19 2 5-3-1-12-24z" fill="#938494"/>
<path transform="translate(667,232)" d="m0 0 5 2 8 7 7 8 5 6-1 2-7-7v-2h-2l-6-7-8-7z" fill="#8B7A8C"/>
<path transform="translate(1727,528)" d="m0 0h1v6l-3 4-2 5-9 9-3-1 9-9 4-8z" fill="#B3AAB3"/>
<path transform="translate(433,316)" d="m0 0 5 1-3 4v7l1 8-4-2v-17z" fill="#A498A4"/>
<path transform="translate(1425,616)" d="m0 0h14l-1 3h-12v13h-1l-1-15z" fill="#AEA4AE"/>
<path transform="translate(292,720)" d="m0 0 3 1 1 18-3 1-1-2z" fill="#A398A3"/>
<path transform="translate(486,700)" d="m0 0h2l-2 4-8 8h-5l-1-1v-6l2-1 2 4 4-2z" fill="#9B8F9C"/>
<path transform="translate(1263,645)" d="m0 0h29v1l-5 1-22 1-3-2z" fill="#A095A0"/>
<path transform="translate(919,476)" d="m0 0h1v19l-1 1h-9l-2-1 1-3h10z" fill="#B3AAB3"/>
<path transform="translate(1637,457)" d="m0 0h3l2 7 4 3 8 1 4 4-8-1-9-4-4-5z" fill="#8F7F90"/>
<path transform="translate(563,137)" d="m0 0 1 4-9 19-3 6-1-2 3-9 8-16z" fill="#958796"/>
<path transform="translate(374,811)" d="m0 0 7 6 4 1 7 11-1 2-11-11-6-7z" fill="#A095A0"/>
<path transform="translate(1266,616)" d="m0 0 15 1v1l-16 2-6 3-5 5h-3l7-8z" fill="#B5ACB5"/>
<path transform="translate(697,263)" d="m0 0 5 5 10 19-1 3-7-12-5-9-2-3z" fill="#A9A0A9"/>
<path transform="translate(217,145)" d="m0 0 3 4 8 17v3h-2l-8-17-2-5z" fill="#8B798C"/>
<path transform="translate(1410,667)" d="m0 0h2v6l-8 10-5 1-1-2 8-6z" fill="#B7AEB7"/>
<path transform="translate(990,448)" d="m0 0h2l-1 3-11 3-12 6h-3v-3l19-7z" fill="#A69BA7"/>
<path transform="translate(1715,420)" d="m0 0 4 1 5 4v5l-3 4-4 8-1-3 4-10v-4l-5-3z" fill="#A99FA9"/>
<path transform="translate(201,110)" d="m0 0 3 3 8 17v3h-2l-8-17-2-5z" fill="#9D8F9D"/>
<path transform="translate(184,74)" d="m0 0h3l5 12 4 8v3h-2l-8-17-2-3z" fill="#A69AA7"/>
<path transform="translate(506,719)" d="m0 0v3l-9 11-7 7h-2l2-4 8-9h2l2-4z" fill="#AAA0AA"/>
<path transform="translate(947,508)" d="m0 0h1l-1 19 1 5-2 1-2-4v-14z" fill="#A598A6"/>
<path transform="translate(302,221)" d="m0 0h1l1 5v17l-3-3v-17z" fill="#9D929E"/>
<path transform="translate(473,196)" d="m0 0 11 1-4 2-13 3-5 2h-3l1-3 11-3z" fill="#A498A4"/>
<path transform="translate(1318,616)" d="m0 0h16l2 1v2h-20v-2z" fill="#988899"/>
<path transform="translate(1041,520)" d="m0 0 3 1-9 10-7 4h-5l4-3 6-4 7-6z" fill="#B0A7B1"/>
<path transform="translate(347,368)" d="m0 0 1 3-3 7-1 11-3 2v-8l4-13z" fill="#A095A0"/>
<path transform="translate(543,614)" d="m0 0 1 4-3 4-3 7-3 6-5 5 1-4z" fill="#A197A1"/>
<path transform="translate(1187,452)" d="m0 0 2 1-16 16-1-2 7-9z" fill="#C7C1C7"/>
<path transform="translate(482,819)" d="m0 0 2 1-1 9 6-1-4 4-5-1v-8z" fill="#998C9A"/>
<path transform="translate(1397,634)" d="m0 0 2 1v9l-3 6-3 3h-3v-2l5-5z" fill="#A99EA9"/>
<path transform="translate(233,593)" d="m0 0 4 4 7 13v3h-2l-5-9-4-8z" fill="#9B8F9B"/>
<path transform="translate(1054,420)" d="m0 0 6 1 11 7 5 7-1 2-10-10-11-6z" fill="#BEB7BF"/>
<path transform="translate(1019,412)" d="m0 0h19l3 2v2l-22-2z" fill="#918092"/>
<path transform="translate(347,392)" d="m0 0h16v4l-14-1-3-2z" fill="#A59BA5"/>
<path transform="translate(266,786)" d="m0 0 4 2v2l4 2 11 11-3 1-16-16z" fill="#A99FA9"/>
<path transform="translate(1262,636)" d="m0 0 25 1-2 2h-23z" fill="#A095A0"/>
<path transform="translate(698,495)" d="m0 0 2 1-2 18-2 3v-19z" fill="#8E7E8F"/>
<path transform="translate(1598,451)" d="m0 0h2l-1 8v14l-3-3v-15z" fill="#8C7B8D"/>
<path transform="translate(967,420)" d="m0 0 4 1-15 8-2 6-2-2 1-5 5-4z" fill="#ABA0AB"/>
<path transform="translate(486,101)" d="m0 0h4l1 3-6 1-10 10-4 1 6-7z" fill="#A196A1"/>
<path transform="translate(503,766)" d="m0 0h1v14l4-1-2 4-5 2v-8z" fill="#ADA4AD"/>
<path transform="translate(1500,617)" d="m0 0h5l-2 2-9 4-3 3h-2l-2 6-3 2 1-5 6-7z" fill="#A99FA9"/>
<path transform="translate(514,483)" d="m0 0h2l-1 5-4 8-3 7-4 1 9-19z" fill="#B3AAB3"/>
<path transform="translate(52,371)" d="m0 0 3 1v2l33 1v1h-36z" fill="#9D929D"/>
<path transform="translate(165,341)" d="m0 0 5 1 1 5-6 5-4 4v-3l6-8-3-3z" fill="#9C8F9C"/>
<path transform="translate(550,167)" d="m0 0h2l-2 6-7 16-2 1 1-7 5-9z" fill="#A99EA9"/>
<path transform="translate(320,824)" d="m0 0 3 1 1 6-1 1h-5l-6-7 4 1v2h3z" fill="#BFB8BF"/>
<path transform="translate(475,754)" d="m0 0 2 2-12 13-3 3h-2l2-4 10-10z" fill="#A79DA7"/>
<path transform="translate(1249,644)" d="m0 0h1l2 10 8 8v2l-5-2-6-7-1-3z" fill="#8E7D8F"/>
<path transform="translate(1286,653)" d="m0 0h6l4 6v4l-5 1 1-8h-6z" fill="#A295A2"/>
<path transform="translate(1601,479)" d="m0 0 5 5 6 7 6 4-4 1-7-6v-2l-3-1-4-5z" fill="#AFA6AF"/>
<path transform="translate(1875,472)" d="m0 0 1 4-7 14-2 5-2 1 1-5 8-18z" fill="#A59BA5"/>
<path transform="translate(271,298)" d="m0 0 1 4-3 4-2 5-4 8-2 1 1-6 8-15z" fill="#A095A0"/>
<path transform="translate(418,819)" d="m0 0v3l-5 6h-2v2l-4 2 2-9h3 4z" fill="#A79CA7"/>
<path transform="translate(465,674)" d="m0 0 2 1v4l-2 1-1 11-3 1-1 2 1-8 2-9z" fill="#9D8F9E"/>
<path transform="translate(79,414)" d="m0 0 1 4-5 16-2 4-1-7 3-7 3-9z" fill="#AFA5AF"/>
<path transform="translate(1458,416)" d="m0 0 6 1-3 2-13 5-7 4-4-1 16-8z" fill="#AEA4AE"/>
<path transform="translate(250,271)" d="m0 0h2l-2 4-12 13h-2l2-4 4-5h2l2-4h2z" fill="#A69BA6"/>
<path transform="translate(146,220)" d="m0 0 2 2-14 9-5 4-2-1 10-9z" fill="#A499A5"/>
<path transform="translate(346,55)" d="m0 0h3l-2 4-5 5h-2l-2 5-2 1v-5l9-8z" fill="#C4BDC4"/>
<path transform="translate(415,860)" d="m0 0v3l-9 9-3 4-4-2-1-4 6 1z" fill="#A89EA8"/>
<path transform="translate(446,787)" d="m0 0 3 1-15 16-2 1 1-4 11-11z" fill="#B0A7B0"/>
<path transform="translate(286,455)" d="m0 0h1l1 24-2 1-1-3v-17z" fill="#9D919D"/>
<path transform="translate(1468,449)" d="m0 0 4 1-19 10-2-2 4-3z" fill="#B8B0B8"/>
<path transform="translate(1300,416)" d="m0 0 20 1 2 2h-22z" fill="#C8C2C8"/>
<path transform="translate(1473,412)" d="m0 0h23v1l-18 2h-7z" fill="#AAA0AB"/>
<path transform="translate(316,412)" d="m0 0 7 1 1 5-7 6h-2l2-4 3-1-2-6z" fill="#9F91A0"/>
<path transform="translate(596,256)" d="m0 0 4 2 3 8-11-3-1-2h5z" fill="#AEA4AE"/>
<path transform="translate(591,192)" d="m0 0 18 6-1 2-5-1-13-4-1-2z" fill="#A397A3"/>
<path transform="translate(1401,616)" d="m0 0h10l1 3-12 1-3 3-3-2 5-3z" fill="#B2AAB2"/>
<path transform="translate(98,447)" d="m0 0h2v12l-2 5-2-1 1-11z" fill="#A499A4"/>
<path transform="translate(99,265)" d="m0 0 1 3-6 9-6 12h-2l2-6 6-11z" fill="#9E929F"/>
<path transform="translate(232,183)" d="m0 0h3l1 6-12 3-3-1 5-3 6-1z" fill="#9E909F"/>
<path transform="translate(474,88)" d="m0 0h2l-2 4-10 9-6 4 2-4z" fill="#A196A1"/>
<path transform="translate(618,74)" d="m0 0h2l-1 5-9 17-1-2 8-19z" fill="#A89EA8"/>
<path transform="translate(1230,463)" d="m0 0 3 1 2 5 1 10h-3l-1-1-1-12z" fill="#9E8F9F"/>
<path transform="translate(1846,445)" d="m0 0 1 2-8 18h-2l1-6 7-13z" fill="#B3AAB3"/>
<path transform="translate(81,298)" d="m0 0 1 2-9 21h-2l2-8z" fill="#A89EA8"/>
<path transform="translate(226,299)" d="m0 0 1 3-13 14h-2l2-4 4-5 4-4h2z" fill="#A499A4"/>
<path transform="translate(206,256)" d="m0 0 2 1v3l5 1-3 3-8 1 2-6z" fill="#AAA0AA"/>
<path transform="translate(587,144)" d="m0 0 1 4-9 19-2 1 1-5z" fill="#A095A0"/>
<path transform="translate(314,101)" d="m0 0 5 1 9 8-1 2-10-8-4 1h-3z" fill="#A499A4"/>
<path transform="translate(167,650)" d="m0 0 3 2 5 12 1 4-2 1-6-12z" fill="#A196A1"/>
<path transform="translate(125,628)" d="m0 0 3 3 4 6 1 3h2l1-2v5h-4l-4-6-3-6z" fill="#B1A8B1"/>
<path transform="translate(633,340)" d="m0 0h3l-1 3-7 1v3l3 1 1 6-5-5-2-6 6-2z" fill="#A69CA6"/>
<path transform="translate(125,235)" d="m0 0 2 1-13 12h-2l2-4 8-8z" fill="#BEB7BE"/>
<path transform="translate(603,108)" d="m0 0 1 3-4 10-6 11-1-3z" fill="#A297A2"/>
<path transform="translate(300,728)" d="m0 0h3l7 8 6 7h-3l-8-8-5-6z" fill="#9F939F"/>
<path transform="translate(68,476)" d="m0 0 1 3h2l1 12-2 2-2-3z" fill="#7F6B80"/>
<path transform="translate(561,380)" d="m0 0 3 1-5 6-9 5-3-1 3-3 5-2 3-3h2z" fill="#9B8E9C"/>
<path transform="translate(121,332)" d="m0 0 19 3v1h-19z" fill="#A095A0"/>
<path transform="translate(570,183)" d="m0 0 2 1v3l8 2-1 3-11-3 1-5z" fill="#9C8D9D"/>
<path transform="translate(510,724)" d="m0 0 2 2v12l-4 2 1-9z" fill="#867488"/>
<path transform="translate(591,662)" d="m0 0 1 3-8 16-2 3-2-1 7-14z" fill="#8C7C8D"/>
<path transform="translate(560,567)" d="m0 0 2 1 1 11-4 1h-2l2-9z" fill="#A69CA6"/>
<path transform="translate(369,528)" d="m0 0 3 2v5l-5 1h-3l1-4z" fill="#B2A9B2"/>
<path transform="translate(1641,412)" d="m0 0h18l-3 2-16 1z" fill="#B2A9B2"/>
<path transform="translate(1325,380)" d="m0 0 11 1-1 2-10 1-1 8h-1l-1-6v-3z" fill="#BBB3BB"/>
<path transform="translate(565,606)" d="m0 0h1l1 10v8l-3-1v-13z" fill="#A69BA6"/>
<path transform="translate(447,591)" d="m0 0 4 1 1 5-6-1-5 4-3-1z" fill="#A398A3"/>
<path transform="translate(376,432)" d="m0 0 4 2 4 5 8 7 1 2-4-1-12-12z" fill="#A196A1"/>
<path transform="translate(294,83)" d="m0 0v3l-7 8-5 6h-2l2-4 4-5h2l2-4z" fill="#A79CA7"/>
<path transform="translate(648,407)" d="m0 0 3 1 1 4v18h-1l-1-13-2-6z" fill="#938394"/>
<path transform="translate(529,392)" d="m0 0h15l-2 2-13 2z" fill="#857386"/>
<path transform="translate(574,108)" d="m0 0h2l-1 6-4 10-3 3 1-6 3-7 1-5z" fill="#ADA4AE"/>
<path transform="translate(340,808)" d="m0 0 4 2 7 7 4 6-4-2-10-10z" fill="#988A99"/>
<path transform="translate(1360,651)" d="m0 0 3 1 4 6 7 4v1h-6l-7-8z" fill="#A89DA9"/>
<path transform="translate(1460,616)" d="m0 0h9l5 3v2l-13-2z" fill="#A69BA6"/>
<path transform="translate(105,595)" d="m0 0 3 3 6 11-1 3-5-7-3-6z" fill="#A499A4"/>
<path transform="translate(353,592)" d="m0 0h5l8 8-1 2-8-6-5-1z" fill="#A196A2"/>
<path transform="translate(1792,570)" d="m0 0 1 2-7 8-3 3-4-1 8-7z" fill="#A499A4"/>
<path transform="translate(711,549)" d="m0 0 1 3-9 19-2-1 9-20z" fill="#A49AA4"/>
<path transform="translate(626,531)" d="m0 0 2 1-2 15-2 1v-13z" fill="#A095A0"/>
<path transform="translate(148,373)" d="m0 0 1 3-8 15h-2l2-6 5-9z" fill="#928393"/>
<path transform="translate(664,318)" d="m0 0 4 4v5l-5 4-3-1 4-3z" fill="#ABA1AB"/>
<path transform="translate(437,143)" d="m0 0 3 3v2l4 2 13 1v1h-14l-5-3-2-4z" fill="#A297A2"/>
<path transform="translate(442,87)" d="m0 0 2 2-3 5-3 10-2-1 1-7z" fill="#A093A0"/>
<path transform="translate(253,711)" d="m0 0 7 6 3 4v2l-4-2-7-7z" fill="#A296A2"/>
<path transform="translate(118,447)" d="m0 0 2 1-2 15-2 2v-14z" fill="#A297A2"/>
<path transform="translate(693,313)" d="m0 0 3 3 4 10v3h-2l-5-10z" fill="#978798"/>
<path transform="translate(541,317)" d="m0 0 2 2v9l-1 4h-2v-13z" fill="#AEA4AE"/>
<path transform="translate(672,276)" d="m0 0 4 2 3 6 4 7h-3l-4-6z" fill="#988A99"/>
<path transform="translate(502,222)" d="m0 0h1v11l-2 7h-1v-12z" fill="#A095A0"/>
<path transform="translate(232,118)" d="m0 0 3 3 5 11-1 4-7-14z" fill="#A59AA5"/>
<path transform="translate(228,108)" d="m0 0 7 1 2 2-5 1v6l-3-4z" fill="#A99EA9"/>
<path transform="translate(364,835)" d="m0 0 7 6 6 7h-3l-9-9z" fill="#BCB5BC"/>
<path transform="translate(1313,665)" d="m0 0 11 1 8-1v2l-2 1h-14l-4-2z" fill="#A095A0"/>
<path transform="translate(261,644)" d="m0 0 3 3 7 11-1 3-6-8-3-6z" fill="#A59AA5"/>
<path transform="translate(635,612)" d="m0 0h1v10l-2 6-2 2v-7z" fill="#A59AA5"/>
<path transform="translate(551,596)" d="m0 0h1l-1 7-6 11-1-3 6-14z" fill="#A79DA7"/>
<path transform="translate(594,567)" d="m0 0 2 1v8l-1 4h-3l1-11z" fill="#9C909C"/>
<path transform="translate(1255,424)" d="m0 0 5 2 5 5 3 4-1 2-5-5v-2l-4-2z" fill="#C1BAC1"/>
<path transform="translate(1533,416)" d="m0 0 10 5 1 3-6-2-9-4z" fill="#B3AAB4"/>
<path transform="translate(555,275)" d="m0 0 4 2 8 8 1 3-4-2-9-9z" fill="#958696"/>
<path transform="translate(625,232)" d="m0 0 10 5v2l-4 2-6-7z" fill="#ADA3AD"/>
<path transform="translate(189,72)" d="m0 0 6 1 10 5v2l-6-2-10-4z" fill="#A093A0"/>
<path transform="translate(609,73)" d="m0 0h5l-3 3-11 4h-5l3-2z" fill="#B2A9B2"/>
<path transform="translate(434,839)" d="m0 0h2l-1 4-7 7h-2l2-4z" fill="#C8C2C8"/>
<path transform="translate(550,731)" d="m0 0 2 1-9 12h-3l2-4z" fill="#A195A1"/>
<path transform="translate(1380,684)" d="m0 0h12l-1 3h-11z" fill="#BDB6BD"/>
<path transform="translate(679,570)" d="m0 0 1 3-7 14-1-4 3-5 3-7z" fill="#A499A4"/>
<path transform="translate(433,528)" d="m0 0h2v2h2l-1 4h2v2l-6-1-1-4z" fill="#A095A0"/>
<path transform="translate(1863,499)" d="m0 0h1l-1 8-6 11-1-3z" fill="#A59BA5"/>
<path transform="translate(726,497)" d="m0 0h2v10l-4 2 1-10z" fill="#9D8F9D"/>
<path transform="translate(1761,485)" d="m0 0 3 4 4 9-1 3-3-4-4-10z" fill="#978998"/>
<path transform="translate(1737,429)" d="m0 0 3 4 4 9v3h-2l-5-10z" fill="#A195A1"/>
<path transform="translate(336,409)" d="m0 0 15 1 2 2h-16z" fill="#A095A0"/>
<path transform="translate(319,783)" d="m0 0 7 6v3l-3-2v-2h-2l-1 10h-1l-1-14z" fill="#887689"/>
<path transform="translate(244,732)" d="m0 0 4 2 7 7 1 4-7-6-5-5z" fill="#9B8E9B"/>
<path transform="translate(1526,652)" d="m0 0 5 4-1 4-4-3-4-1 1-3z" fill="#C9C3C9"/>
<path transform="translate(1319,636)" d="m0 0 12 1 1 2h-16v-2z" fill="#B0A7B0"/>
<path transform="translate(1270,616)" d="m0 0h12l8 4-3 2-9-3v-1l-8-1z" fill="#826C84"/>
<path transform="translate(1851,528)" d="m0 0h1l-1 7-6 11-1-3z" fill="#A298A2"/>
<path transform="translate(1773,513)" d="m0 0 3 4 4 9-1 3-3-4-4-10z" fill="#9E919E"/>
<path transform="translate(399,466)" d="m0 0h1v5l-3 5-4 6-1-4 3-4z" fill="#A89EA8"/>
<path transform="translate(512,86)" d="m0 0 4 3v2h2l6 8-1 2-11-12z" fill="#A89EA8"/>
<path transform="translate(415,16)" d="m0 0 5 2 7 7-2 2-10-9z" fill="#D4CFD4"/>
<path transform="translate(459,811)" d="m0 0 1 3-9 9h-2l2-4 6-7z" fill="#A296A2"/>
<path transform="translate(204,719)" d="m0 0 4 2 7 10h-3l-8-10z" fill="#A89EA8"/>
<path transform="translate(1373,643)" d="m0 0 5 5 4 3v2h5v1h-6l-6-4-2-3z" fill="#B9B1B9"/>
<path transform="translate(430,604)" d="m0 0h2v3l-11 8-2-1 3-3h2l1-3z" fill="#B3ABB3"/>
<path transform="translate(1731,602)" d="m0 0 1 4v2l5 2 1 2-6-1-4-4 2-4z" fill="#B9B1B9"/>
<path transform="translate(623,554)" d="m0 0h1l-1 8-2 7h-1v-10z" fill="#938494"/>
<path transform="translate(1652,504)" d="m0 0 12 2 7 1v1h-12l-7-1z" fill="#A59BA5"/>
<path transform="translate(1749,458)" d="m0 0 3 3 4 9-1 3-3-4-4-10z" fill="#A498A4"/>
<path transform="translate(1776,420)" d="m0 0 3 1 5 11-1 4-7-14z" fill="#B1A8B1"/>
<path transform="translate(1221,412)" d="m0 0h13l2 1v2l-15-1z" fill="#9E8E9F"/>
<path transform="translate(476,386)" d="m0 0 4 4v8l-3 1v-7z" fill="#958796"/>
<path transform="translate(70,323)" d="m0 0 2 1-6 14-1 4h-2l2-9z" fill="#A59AA5"/>
<path transform="translate(473,312)" d="m0 0 5 1-3 3-7 3h-5l3-3 5-2z" fill="#9D909E"/>
<path transform="translate(363,176)" d="m0 0h7l3 3h-11l-5-1v-1z" fill="#A095A0"/>
<path transform="translate(244,146)" d="m0 0 3 3 5 10-1 4-7-14z" fill="#A59BA5"/>
<path transform="translate(591,80)" d="m0 0 4 1-8 4-8 3 1-3z" fill="#AA9FAA"/>
<path transform="translate(332,764)" d="m0 0 4 2 8 9h-3l-9-9z" fill="#A59BA5"/>
<path transform="translate(1319,653)" d="m0 0 1 2h10l5-2-1 4-5 1-9-1z" fill="#7E6980"/>
<path transform="translate(569,652)" d="m0 0 2 2 2-2 2 1-2 4-2 3-3-1v-6z" fill="#988B99"/>
<path transform="translate(1532,633)" d="m0 0 3 4 1 3v7h-2l-2-7z" fill="#AEA5AE"/>
<path transform="translate(188,634)" d="m0 0h3l5 6-1 2-3-2-1 3-2-4z" fill="#A095A0"/>
<path transform="translate(590,590)" d="m0 0h1l1 12-1 2-3-1 1-8z" fill="#A298A2"/>
<path transform="translate(1470,511)" d="m0 0 2 3v7l-2 4-1-1v-11z" fill="#9C909C"/>
<path transform="translate(1683,476)" d="m0 0h11l2 1v2l2 1-8-1-7-2z" fill="#938394"/>
<path transform="translate(602,428)" d="m0 0 5 5 4 5v2l-3-1-6-6z" fill="#A89EA8"/>
<path transform="translate(462,409)" d="m0 0h6l-1 2-8 1h-9l2-2z" fill="#A095A0"/>
<path transform="translate(445,392)" d="m0 0h11v2l-3 1h-9z" fill="#A298A2"/>
<path transform="translate(644,387)" d="m0 0 3 1 1 3v10l-2-4-2-6z" fill="#9E919E"/>
<path transform="translate(485,308)" d="m0 0h9l2 3h-12z" fill="#978897"/>
<path transform="translate(439,752)" d="m0 0h1v6l-3 4-2 5-2 1 1-5z" fill="#9E919E"/>
<path transform="translate(1362,675)" d="m0 0 2 3v2l7 2-1 2-7-2-2-2z" fill="#AFA5AF"/>
<path transform="translate(1396,660)" d="m0 0 3 1v8l-2-4-4-2-2-2z" fill="#A095A0"/>
<path transform="translate(597,534)" d="m0 0 3 3v10h-4z" fill="#A095A0"/>
<path transform="translate(1472,528)" d="m0 0 12 6v2l-5-1-7-5z" fill="#938294"/>
<path transform="translate(1464,477)" d="m0 0h21v1l-14 1-7 1z" fill="#A99FA9"/>
<path transform="translate(1883,453)" d="m0 0 1 2-4 11-4 5 1-6z" fill="#A398A3"/>
<path transform="translate(131,293)" d="m0 0 1 4-5 11-3-1z" fill="#A59AA5"/>
<path transform="translate(551,116)" d="m0 0h2v2l-14 6-2-1 4-3z" fill="#ACA2AC"/>
<path transform="translate(603,698)" d="m0 0 1 3-6 11-3 2 2-6z" fill="#A095A0"/>
<path transform="translate(1739,586)" d="m0 0 1 4-6 10-2 1 1-4 5-10z" fill="#A398A3"/>
<path transform="translate(1434,496)" d="m0 0h2l-2 5-4 8-2-2 5-10z" fill="#BFB8BF"/>
<path transform="translate(651,487)" d="m0 0h1v7l-2 2-5-1 5-6z" fill="#AEA3AE"/>
<path transform="translate(1829,481)" d="m0 0 2 4-5 12-2 1 1-5z" fill="#908191"/>
<path transform="translate(1660,472)" d="m0 0h14l2 1v2l-10-1-6-1z" fill="#8F7E90"/>
<path transform="translate(1220,452)" d="m0 0 5 3 6 6v2l-4-2-7-7z" fill="#C5BFC5"/>
<path transform="translate(716,298)" d="m0 0 3 3 4 8 1 6-3-3-5-11z" fill="#A095A0"/>
<path transform="translate(426,253)" d="m0 0 3 1-8 7-4 3-2-1 7-7z" fill="#ACA3AC"/>
<path transform="translate(522,196)" d="m0 0h9l1 3-14-1z" fill="#908191"/>
<path transform="translate(367,142)" d="m0 0 1 4-6 6h-10v-1l8-1 5-5z" fill="#A095A0"/>
<path transform="translate(337,140)" d="m0 0 5 5 1 3 5 2-3 1-8-7-1-2z" fill="#9C909C"/>
<path transform="translate(533,131)" d="m0 0 3 4v7l-3 2z" fill="#8D7C8D"/>
<path transform="translate(455,95)" d="m0 0h1v12l-3 1-1-4z" fill="#A69CA6"/>
<path transform="translate(357,791)" d="m0 0 7 6 4 4-3 1-8-8z" fill="#A095A0"/>
<path transform="translate(559,763)" d="m0 0 1 3-8 8h-2l2-4z" fill="#938494"/>
<path transform="translate(1839,556)" d="m0 0h1l-1 7-5 9-1-3z" fill="#A398A3"/>
<path transform="translate(1045,547)" d="m0 0h2v7h-2v5h-1l-1-8v-3z" fill="#9B8B9C"/>
<path transform="translate(1402,416)" d="m0 0 2 2-2 1-25-1v-1z" fill="#FEFEFE"/>
<path transform="translate(1672,413)" d="m0 0h20v2l-3 1-17-2z" fill="#A69CA6"/>
<path transform="translate(343,320)" d="m0 0h10l6 2v1l-14-1z" fill="#A095A0"/>
<path transform="translate(164,241)" d="m0 0v3l-5 7-3 1 2-5 1-4z" fill="#A195A2"/>
<path transform="translate(513,712)" d="m0 0h3l-1 7h-3l-1-4z" fill="#A599A5"/>
<path transform="translate(623,656)" d="m0 0h1l-1 7-5 9-1-3z" fill="#9B8F9C"/>
<path transform="translate(953,544)" d="m0 0 6 5 4 4v2l-4-2-5-5z" fill="#998B9A"/>
<path transform="translate(117,527)" d="m0 0h1l1 17h-2l-1-6z" fill="#A095A0"/>
<path transform="translate(57,357)" d="m0 0 2 3-4 12-2 2 1-7z" fill="#B0A6B0"/>
<path transform="translate(449,320)" d="m0 0h11l-2 2-10 1-3-2z" fill="#9B8F9C"/>
<path transform="translate(317,781)" d="m0 0 2 1v11h-2l-1-11z" fill="#CDC7CD"/>
<path transform="translate(445,735)" d="m0 0h2l1 4-3 3-2 6h-2l1-5z" fill="#B0A6B0"/>
<path transform="translate(1365,668)" d="m0 0 6 1 1 3h-8z" fill="#AEA2AF"/>
<path transform="translate(1350,648)" d="m0 0h1v19l-3 1v-4h2z" fill="#E9E6E9"/>
<path transform="translate(610,607)" d="m0 0h2l-1 5-3 10-2-1 3-12z" fill="#938493"/>
<path transform="translate(718,530)" d="m0 0 2 3-3 5-2 5-2 1 1-5z" fill="#B4ACB4"/>
<path transform="translate(1727,528)" d="m0 0h1v6l-3 4-2 4-1-3 4-10z" fill="#9F939F"/>
<path transform="translate(131,405)" d="m0 0h2l-1 6-4 6-1-2z" fill="#A599A5"/>
<path transform="translate(206,121)" d="m0 0h2l4 9v3h-2l-4-8z" fill="#918192"/>
<path transform="translate(324,84)" d="m0 0 4 2 8 8h-3l-9-8z" fill="#A69CA6"/>
<path transform="translate(294,811)" d="m0 0 5 2 5 4 1 3-5-2z" fill="#AAA1AA"/>
<path transform="translate(418,803)" d="m0 0 1 4-5 9-1-3 4-9z" fill="#A399A3"/>
<path transform="translate(1493,663)" d="m0 0 6 1 7 3v1l-9-1z" fill="#AAA1AA"/>
<path transform="translate(1497,647)" d="m0 0 7 6v3l-4-1-3-4z" fill="#9C8E9D"/>
<path transform="translate(605,621)" d="m0 0h2l-1 6-3 8-1-4z" fill="#AEA5AE"/>
<path transform="translate(410,620)" d="m0 0h2l-2 4-4 4h-2l1-4z" fill="#9A8D9B"/>
<path transform="translate(1266,616)" d="m0 0 15 1v1l-17 1v-2z" fill="#D9D5D9"/>
<path transform="translate(1527,547)" d="m0 0h2l-1 4h-3l-2 4-3 1 1-4z" fill="#C4BDC4"/>
<path transform="translate(1454,480)" d="m0 0h5l-1 2-10 4-2-2z" fill="#B1A7B1"/>
<path transform="translate(1187,416)" d="m0 0h6l-2 2-11 5 1-3z" fill="#B9B1B9"/>
<path transform="translate(453,235)" d="m0 0v3l-6 5-4 1 2-4z" fill="#B9B1B9"/>
<path transform="translate(556,153)" d="m0 0 1 3-5 10-1-2 3-9z" fill="#B2A9B2"/>
<path transform="translate(306,111)" d="m0 0h2l-1 4-7 6 2-5z" fill="#AEA5AE"/>
</svg>
