<?xml version="1.0" standalone="no"?><svg xmlns="http://www.w3.org/2000/svg" viewBox="0 0 1440 320"><path fill="#c30010" fill-opacity="1" d="M0,96L6.2,128C12.3,160,25,224,37,234.7C49.2,245,62,203,74,186.7C86.2,171,98,181,111,176C123.1,171,135,149,148,122.7C160,96,172,64,185,42.7C196.9,21,209,11,222,58.7C233.8,107,246,213,258,240C270.8,267,283,213,295,186.7C307.7,160,320,160,332,138.7C344.6,117,357,75,369,58.7C381.5,43,394,53,406,53.3C418.5,53,431,43,443,85.3C455.4,128,468,224,480,250.7C492.3,277,505,235,517,218.7C529.2,203,542,213,554,224C566.2,235,578,245,591,218.7C603.1,192,615,128,628,85.3C640,43,652,21,665,48C676.9,75,689,149,702,176C713.8,203,726,181,738,170.7C750.8,160,763,160,775,160C787.7,160,800,160,812,176C824.6,192,837,224,849,240C861.5,256,874,256,886,250.7C898.5,245,911,235,923,229.3C935.4,224,948,224,960,224C972.3,224,985,224,997,202.7C1009.2,181,1022,139,1034,112C1046.2,85,1058,75,1071,90.7C1083.1,107,1095,149,1108,176C1120,203,1132,213,1145,213.3C1156.9,213,1169,203,1182,181.3C1193.8,160,1206,128,1218,128C1230.8,128,1243,160,1255,197.3C1267.7,235,1280,277,1292,298.7C1304.6,320,1317,320,1329,304C1341.5,288,1354,256,1366,234.7C1378.5,213,1391,203,1403,176C1415.4,149,1428,107,1434,85.3L1440,64L1440,320L1433.8,320C1427.7,320,1415,320,1403,320C1390.8,320,1378,320,1366,320C1353.8,320,1342,320,1329,320C1316.9,320,1305,320,1292,320C1280,320,1268,320,1255,320C1243.1,320,1231,320,1218,320C1206.2,320,1194,320,1182,320C1169.2,320,1157,320,1145,320C1132.3,320,1120,320,1108,320C1095.4,320,1083,320,1071,320C1058.5,320,1046,320,1034,320C1021.5,320,1009,320,997,320C984.6,320,972,320,960,320C947.7,320,935,320,923,320C910.8,320,898,320,886,320C873.8,320,862,320,849,320C836.9,320,825,320,812,320C800,320,788,320,775,320C763.1,320,751,320,738,320C726.2,320,714,320,702,320C689.2,320,677,320,665,320C652.3,320,640,320,628,320C615.4,320,603,320,591,320C578.5,320,566,320,554,320C541.5,320,529,320,517,320C504.6,320,492,320,480,320C467.7,320,455,320,443,320C430.8,320,418,320,406,320C393.8,320,382,320,369,320C356.9,320,345,320,332,320C320,320,308,320,295,320C283.1,320,271,320,258,320C246.2,320,234,320,222,320C209.2,320,197,320,185,320C172.3,320,160,320,148,320C135.4,320,123,320,111,320C98.5,320,86,320,74,320C61.5,320,49,320,37,320C24.6,320,12,320,6,320L0,320Z"></path></svg>